<?xml version="1.0" encoding="utf-8"?>
<!-- Generator: Adobe Illustrator 21.1.0, SVG Export Plug-In . SVG Version: 6.00 Build 0)  -->
<svg version="1.1" id="Calque_1" xmlns="http://www.w3.org/2000/svg" xmlns:xlink="http://www.w3.org/1999/xlink" x="0px" y="0px"
	 viewBox="0 0 118 139" style="enable-background:new 0 0 118 139;" xml:space="preserve">
<style type="text/css">
	.st0{fill:#201E25;}
	.st1{opacity:0.6649;clip-path:url(#SVGID_3_);}
	.st2{fill:none;stroke:#F8B001;stroke-width:0.2;}
	.st3{fill:url(#SVGID_4_);stroke:#F8B001;stroke-width:3;stroke-miterlimit:10;}
	.st4{fill:#9D9C8D;}
	.st5{fill:#BFB8A7;}
	.st6{fill:#FCC433;}
	.st7{fill:#F8B001;}
	.st8{fill:#FFE495;}
	.st9{fill:#E0E7DE;}
	.st10{fill:#FFF8C0;}
	.st11{fill:#FFDC90;}
</style>
<g>
	<g>
		<g>
			<polygon id="SVGID_1_" class="st0" points="10.3,40.8 10.3,98.2 59,126.9 107.7,98.2 107.7,40.8 59,12.1 			"/>
		</g>
		<g>
			<defs>
				<polygon id="SVGID_2_" points="10.3,40.8 10.3,98.2 59,126.9 107.7,98.2 107.7,40.8 59,12.1 				"/>
			</defs>
			<clipPath id="SVGID_3_">
				<use xlink:href="#SVGID_2_"  style="overflow:visible;"/>
			</clipPath>
			<g id="Page-1" class="st1">
				<g id="HOME-Copy-2" transform="translate(-677.000000, -53.000000)">
					<g id="logo" transform="translate(647.000000, 0.000000)">
						<g id="Group-38" transform="translate(30.000000, 53.000000)">
							<g id="Polygon-2">
								<g id="Group-40" transform="translate(-41.000000, -23.000000)">
									<g id="Group-39">
										<g id="Group-37">
											<g id="Polygon-2-Copy-316">
												<polygon class="st2" points="147.7,146.2 150.8,148 150.8,151.6 147.7,153.4 144.6,151.6 144.6,148 												"/>
											</g>
											<g id="Polygon-2-Copy-315">
												<polygon class="st2" points="138.2,146.2 141.3,148 141.3,151.6 138.2,153.4 135.1,151.6 135.1,148 												"/>
											</g>
											<g id="Polygon-2-Copy-314">
												<polygon class="st2" points="128.6,146.2 131.7,148 131.7,151.6 128.6,153.4 125.5,151.6 125.5,148 												"/>
											</g>
											<g id="Polygon-2-Copy-313">
												<polygon class="st2" points="119.1,146.2 122.2,148 122.2,151.6 119.1,153.4 116,151.6 116,148 												"/>
											</g>
											<g id="Polygon-2-Copy-312">
												<polygon class="st2" points="109.5,146.2 112.6,148 112.6,151.6 109.5,153.4 106.4,151.6 106.4,148 												"/>
											</g>
											<g id="Polygon-2-Copy-311">
												<polygon class="st2" points="100,146.2 103.1,148 103.1,151.6 100,153.4 96.9,151.6 96.9,148 												"/>
											</g>
											<g id="Polygon-2-Copy-310">
												<polygon class="st2" points="90.5,146.2 93.6,148 93.6,151.6 90.5,153.4 87.4,151.6 87.4,148 												"/>
											</g>
											<g id="Polygon-2-Copy-309">
												<polygon class="st2" points="80.9,146.2 84,148 84,151.6 80.9,153.4 77.8,151.6 77.8,148 												"/>
											</g>
											<g id="Polygon-2-Copy-308">
												<polygon class="st2" points="71.4,146.2 74.5,148 74.5,151.6 71.4,153.4 68.3,151.6 68.3,148 												"/>
											</g>
											<g id="Polygon-2-Copy-307">
												<polygon class="st2" points="61.8,146.2 64.9,148 64.9,151.6 61.8,153.4 58.7,151.6 58.7,148 												"/>
											</g>
											<g id="Polygon-2-Copy-306">
												<polygon class="st2" points="52.3,146.2 55.4,148 55.4,151.6 52.3,153.4 49.2,151.6 49.2,148 												"/>
											</g>
											<g id="Polygon-2-Copy-296">
												<polygon class="st2" points="147.7,136.6 150.8,138.4 150.8,142 147.7,143.8 144.6,142 144.6,138.4 												"/>
											</g>
											<g id="Polygon-2-Copy-295">
												<polygon class="st2" points="138.2,136.6 141.3,138.4 141.3,142 138.2,143.8 135.1,142 135.1,138.4 												"/>
											</g>
											<g id="Polygon-2-Copy-294">
												<polygon class="st2" points="128.6,136.6 131.7,138.4 131.7,142 128.6,143.8 125.5,142 125.5,138.4 												"/>
											</g>
											<g id="Polygon-2-Copy-293">
												<polygon class="st2" points="119.1,136.6 122.2,138.4 122.2,142 119.1,143.8 116,142 116,138.4 												"/>
											</g>
											<g id="Polygon-2-Copy-292">
												<polygon class="st2" points="109.5,136.6 112.6,138.4 112.6,142 109.5,143.8 106.4,142 106.4,138.4 												"/>
											</g>
											<g id="Polygon-2-Copy-291">
												<polygon class="st2" points="100,136.6 103.1,138.4 103.1,142 100,143.8 96.9,142 96.9,138.4 												"/>
											</g>
											<g id="Polygon-2-Copy-290">
												<polygon class="st2" points="90.5,136.6 93.6,138.4 93.6,142 90.5,143.8 87.4,142 87.4,138.4 												"/>
											</g>
											<g id="Polygon-2-Copy-289">
												<polygon class="st2" points="80.9,136.6 84,138.4 84,142 80.9,143.8 77.8,142 77.8,138.4 												"/>
											</g>
											<g id="Polygon-2-Copy-288">
												<polygon class="st2" points="71.4,136.6 74.5,138.4 74.5,142 71.4,143.8 68.3,142 68.3,138.4 												"/>
											</g>
											<g id="Polygon-2-Copy-287">
												<polygon class="st2" points="61.8,136.6 64.9,138.4 64.9,142 61.8,143.8 58.7,142 58.7,138.4 												"/>
											</g>
											<g id="Polygon-2-Copy-286">
												<polygon class="st2" points="52.3,136.6 55.4,138.4 55.4,142 52.3,143.8 49.2,142 49.2,138.4 												"/>
											</g>
											<g id="Polygon-2-Copy-276">
												<polygon class="st2" points="147.7,127.1 150.8,128.9 150.8,132.5 147.7,134.3 144.6,132.5 144.6,128.9 												"/>
											</g>
											<g id="Polygon-2-Copy-275">
												<polygon class="st2" points="138.2,127.1 141.3,128.9 141.3,132.5 138.2,134.3 135.1,132.5 135.1,128.9 												"/>
											</g>
											<g id="Polygon-2-Copy-274">
												<polygon class="st2" points="128.6,127.1 131.7,128.9 131.7,132.5 128.6,134.3 125.5,132.5 125.5,128.9 												"/>
											</g>
											<g id="Polygon-2-Copy-273">
												<polygon class="st2" points="119.1,127.1 122.2,128.9 122.2,132.5 119.1,134.3 116,132.5 116,128.9 												"/>
											</g>
											<g id="Polygon-2-Copy-272">
												<polygon class="st2" points="109.5,127.1 112.6,128.9 112.6,132.5 109.5,134.3 106.4,132.5 106.4,128.9 												"/>
											</g>
											<g id="Polygon-2-Copy-271">
												<polygon class="st2" points="100,127.1 103.1,128.9 103.1,132.5 100,134.3 96.9,132.5 96.9,128.9 												"/>
											</g>
											<g id="Polygon-2-Copy-270">
												<polygon class="st2" points="90.5,127.1 93.6,128.9 93.6,132.5 90.5,134.3 87.4,132.5 87.4,128.9 												"/>
											</g>
											<g id="Polygon-2-Copy-269">
												<polygon class="st2" points="80.9,127.1 84,128.9 84,132.5 80.9,134.3 77.8,132.5 77.8,128.9 												"/>
											</g>
											<g id="Polygon-2-Copy-268">
												<polygon class="st2" points="71.4,127.1 74.5,128.9 74.5,132.5 71.4,134.3 68.3,132.5 68.3,128.9 												"/>
											</g>
											<g id="Polygon-2-Copy-267">
												<polygon class="st2" points="61.8,127.1 64.9,128.9 64.9,132.5 61.8,134.3 58.7,132.5 58.7,128.9 												"/>
											</g>
											<g id="Polygon-2-Copy-266">
												<polygon class="st2" points="52.3,127.1 55.4,128.9 55.4,132.5 52.3,134.3 49.2,132.5 49.2,128.9 												"/>
											</g>
											<g id="Polygon-2-Copy-256">
												<polygon class="st2" points="147.7,117.6 150.8,119.3 150.8,122.9 147.7,124.7 144.6,122.9 144.6,119.3 												"/>
											</g>
											<g id="Polygon-2-Copy-255">
												<polygon class="st2" points="138.2,117.6 141.3,119.3 141.3,122.9 138.2,124.7 135.1,122.9 135.1,119.3 												"/>
											</g>
											<g id="Polygon-2-Copy-254">
												<polygon class="st2" points="128.6,117.6 131.7,119.3 131.7,122.9 128.6,124.7 125.5,122.9 125.5,119.3 												"/>
											</g>
											<g id="Polygon-2-Copy-253">
												<polygon class="st2" points="119.1,117.6 122.2,119.3 122.2,122.9 119.1,124.7 116,122.9 116,119.3 												"/>
											</g>
											<g id="Polygon-2-Copy-252">
												<polygon class="st2" points="109.5,117.6 112.6,119.3 112.6,122.9 109.5,124.7 106.4,122.9 106.4,119.3 												"/>
											</g>
											<g id="Polygon-2-Copy-251">
												<polygon class="st2" points="100,117.6 103.1,119.3 103.1,122.9 100,124.7 96.9,122.9 96.9,119.3 												"/>
											</g>
											<g id="Polygon-2-Copy-250">
												<polygon class="st2" points="90.5,117.6 93.6,119.3 93.6,122.9 90.5,124.7 87.4,122.9 87.4,119.3 												"/>
											</g>
											<g id="Polygon-2-Copy-249">
												<polygon class="st2" points="80.9,117.6 84,119.3 84,122.9 80.9,124.7 77.8,122.9 77.8,119.3 												"/>
											</g>
											<g id="Polygon-2-Copy-248">
												<polygon class="st2" points="71.4,117.6 74.5,119.3 74.5,122.9 71.4,124.7 68.3,122.9 68.3,119.3 												"/>
											</g>
											<g id="Polygon-2-Copy-247">
												<polygon class="st2" points="61.8,117.6 64.9,119.3 64.9,122.9 61.8,124.7 58.7,122.9 58.7,119.3 												"/>
											</g>
											<g id="Polygon-2-Copy-246">
												<polygon class="st2" points="52.3,117.6 55.4,119.3 55.4,122.9 52.3,124.7 49.2,122.9 49.2,119.3 												"/>
											</g>
											<g id="Polygon-2-Copy-236">
												<polygon class="st2" points="147.7,108 150.8,109.8 150.8,113.4 147.7,115.2 144.6,113.4 144.6,109.8 												"/>
											</g>
											<g id="Polygon-2-Copy-235">
												<polygon class="st2" points="138.2,108 141.3,109.8 141.3,113.4 138.2,115.2 135.1,113.4 135.1,109.8 												"/>
											</g>
											<g id="Polygon-2-Copy-234">
												<polygon class="st2" points="128.6,108 131.7,109.8 131.7,113.4 128.6,115.2 125.5,113.4 125.5,109.8 												"/>
											</g>
											<g id="Polygon-2-Copy-233">
												<polygon class="st2" points="119.1,108 122.2,109.8 122.2,113.4 119.1,115.2 116,113.4 116,109.8 												"/>
											</g>
											<g id="Polygon-2-Copy-232">
												<polygon class="st2" points="109.5,108 112.6,109.8 112.6,113.4 109.5,115.2 106.4,113.4 106.4,109.8 												"/>
											</g>
											<g id="Polygon-2-Copy-231">
												<polygon class="st2" points="100,108 103.1,109.8 103.1,113.4 100,115.2 96.9,113.4 96.9,109.8 												"/>
											</g>
											<g id="Polygon-2-Copy-230">
												<polygon class="st2" points="90.5,108 93.6,109.8 93.6,113.4 90.5,115.2 87.4,113.4 87.4,109.8 												"/>
											</g>
											<g id="Polygon-2-Copy-229">
												<polygon class="st2" points="80.9,108 84,109.8 84,113.4 80.9,115.2 77.8,113.4 77.8,109.8 												"/>
											</g>
											<g id="Polygon-2-Copy-228">
												<polygon class="st2" points="71.4,108 74.5,109.8 74.5,113.4 71.4,115.2 68.3,113.4 68.3,109.8 												"/>
											</g>
											<g id="Polygon-2-Copy-227">
												<polygon class="st2" points="61.8,108 64.9,109.8 64.9,113.4 61.8,115.2 58.7,113.4 58.7,109.8 												"/>
											</g>
											<g id="Polygon-2-Copy-226">
												<polygon class="st2" points="52.3,108 55.4,109.8 55.4,113.4 52.3,115.2 49.2,113.4 49.2,109.8 												"/>
											</g>
											<g id="Polygon-2-Copy-216">
												<polygon class="st2" points="147.7,98.5 150.8,100.3 150.8,103.8 147.7,105.6 144.6,103.8 144.6,100.3 												"/>
											</g>
											<g id="Polygon-2-Copy-215">
												<polygon class="st2" points="138.2,98.5 141.3,100.3 141.3,103.8 138.2,105.6 135.1,103.8 135.1,100.3 												"/>
											</g>
											<g id="Polygon-2-Copy-214">
												<polygon class="st2" points="128.6,98.5 131.7,100.3 131.7,103.8 128.6,105.6 125.5,103.8 125.5,100.3 												"/>
											</g>
											<g id="Polygon-2-Copy-213">
												<polygon class="st2" points="119.1,98.5 122.2,100.3 122.2,103.8 119.1,105.6 116,103.8 116,100.3 												"/>
											</g>
											<g id="Polygon-2-Copy-212">
												<polygon class="st2" points="109.5,98.5 112.6,100.3 112.6,103.8 109.5,105.6 106.4,103.8 106.4,100.3 												"/>
											</g>
											<g id="Polygon-2-Copy-211">
												<polygon class="st2" points="100,98.5 103.1,100.3 103.1,103.8 100,105.6 96.9,103.8 96.9,100.3 												"/>
											</g>
											<g id="Polygon-2-Copy-210">
												<polygon class="st2" points="90.5,98.5 93.6,100.3 93.6,103.8 90.5,105.6 87.4,103.8 87.4,100.3 												"/>
											</g>
											<g id="Polygon-2-Copy-209">
												<polygon class="st2" points="80.9,98.5 84,100.3 84,103.8 80.9,105.6 77.8,103.8 77.8,100.3 												"/>
											</g>
											<g id="Polygon-2-Copy-208">
												<polygon class="st2" points="71.4,98.5 74.5,100.3 74.5,103.8 71.4,105.6 68.3,103.8 68.3,100.3 												"/>
											</g>
											<g id="Polygon-2-Copy-207">
												<polygon class="st2" points="61.8,98.5 64.9,100.3 64.9,103.8 61.8,105.6 58.7,103.8 58.7,100.3 												"/>
											</g>
											<g id="Polygon-2-Copy-206">
												<polygon class="st2" points="52.3,98.5 55.4,100.3 55.4,103.8 52.3,105.6 49.2,103.8 49.2,100.3 												"/>
											</g>
											<g id="Polygon-2-Copy-196">
												<polygon class="st2" points="147.7,88.9 150.8,90.7 150.8,94.3 147.7,96.1 144.6,94.3 144.6,90.7 												"/>
											</g>
											<g id="Polygon-2-Copy-195">
												<polygon class="st2" points="138.2,88.9 141.3,90.7 141.3,94.3 138.2,96.1 135.1,94.3 135.1,90.7 												"/>
											</g>
											<g id="Polygon-2-Copy-194">
												<polygon class="st2" points="128.6,88.9 131.7,90.7 131.7,94.3 128.6,96.1 125.5,94.3 125.5,90.7 												"/>
											</g>
											<g id="Polygon-2-Copy-193">
												<polygon class="st2" points="119.1,88.9 122.2,90.7 122.2,94.3 119.1,96.1 116,94.3 116,90.7 												"/>
											</g>
											<g id="Polygon-2-Copy-192">
												<polygon class="st2" points="109.5,88.9 112.6,90.7 112.6,94.3 109.5,96.1 106.4,94.3 106.4,90.7 												"/>
											</g>
											<g id="Polygon-2-Copy-191">
												<polygon class="st2" points="100,88.9 103.1,90.7 103.1,94.3 100,96.1 96.9,94.3 96.9,90.7 												"/>
											</g>
											<g id="Polygon-2-Copy-190">
												<polygon class="st2" points="90.5,88.9 93.6,90.7 93.6,94.3 90.5,96.1 87.4,94.3 87.4,90.7 												"/>
											</g>
											<g id="Polygon-2-Copy-189">
												<polygon class="st2" points="80.9,88.9 84,90.7 84,94.3 80.9,96.1 77.8,94.3 77.8,90.7 												"/>
											</g>
											<g id="Polygon-2-Copy-188">
												<polygon class="st2" points="71.4,88.9 74.5,90.7 74.5,94.3 71.4,96.1 68.3,94.3 68.3,90.7 												"/>
											</g>
											<g id="Polygon-2-Copy-187">
												<polygon class="st2" points="61.8,88.9 64.9,90.7 64.9,94.3 61.8,96.1 58.7,94.3 58.7,90.7 												"/>
											</g>
											<g id="Polygon-2-Copy-186">
												<polygon class="st2" points="52.3,88.9 55.4,90.7 55.4,94.3 52.3,96.1 49.2,94.3 49.2,90.7 												"/>
											</g>
											<g id="Polygon-2-Copy-176">
												<polygon class="st2" points="147.7,79.4 150.8,81.2 150.8,84.7 147.7,86.5 144.6,84.7 144.6,81.2 												"/>
											</g>
											<g id="Polygon-2-Copy-175">
												<polygon class="st2" points="138.2,79.4 141.3,81.2 141.3,84.7 138.2,86.5 135.1,84.7 135.1,81.2 												"/>
											</g>
											<g id="Polygon-2-Copy-174">
												<polygon class="st2" points="128.6,79.4 131.7,81.2 131.7,84.7 128.6,86.5 125.5,84.7 125.5,81.2 												"/>
											</g>
											<g id="Polygon-2-Copy-173">
												<polygon class="st2" points="119.1,79.4 122.2,81.2 122.2,84.7 119.1,86.5 116,84.7 116,81.2 												"/>
											</g>
											<g id="Polygon-2-Copy-172">
												<polygon class="st2" points="109.5,79.4 112.6,81.2 112.6,84.7 109.5,86.5 106.4,84.7 106.4,81.2 												"/>
											</g>
											<g id="Polygon-2-Copy-171">
												<polygon class="st2" points="100,79.4 103.1,81.2 103.1,84.7 100,86.5 96.9,84.7 96.9,81.2 												"/>
											</g>
											<g id="Polygon-2-Copy-170">
												<polygon class="st2" points="90.5,79.4 93.6,81.2 93.6,84.7 90.5,86.5 87.4,84.7 87.4,81.2 												"/>
											</g>
											<g id="Polygon-2-Copy-169">
												<polygon class="st2" points="80.9,79.4 84,81.2 84,84.7 80.9,86.5 77.8,84.7 77.8,81.2 												"/>
											</g>
											<g id="Polygon-2-Copy-168">
												<polygon class="st2" points="71.4,79.4 74.5,81.2 74.5,84.7 71.4,86.5 68.3,84.7 68.3,81.2 												"/>
											</g>
											<g id="Polygon-2-Copy-167">
												<polygon class="st2" points="61.8,79.4 64.9,81.2 64.9,84.7 61.8,86.5 58.7,84.7 58.7,81.2 												"/>
											</g>
											<g id="Polygon-2-Copy-166">
												<polygon class="st2" points="52.3,79.4 55.4,81.2 55.4,84.7 52.3,86.5 49.2,84.7 49.2,81.2 												"/>
											</g>
											<g id="Polygon-2-Copy-156">
												<polygon class="st2" points="147.7,69.8 150.8,71.6 150.8,75.2 147.7,77 144.6,75.2 144.6,71.6 												"/>
											</g>
											<g id="Polygon-2-Copy-155">
												<polygon class="st2" points="138.2,69.8 141.3,71.6 141.3,75.2 138.2,77 135.1,75.2 135.1,71.6 												"/>
											</g>
											<g id="Polygon-2-Copy-154">
												<polygon class="st2" points="128.6,69.8 131.7,71.6 131.7,75.2 128.6,77 125.5,75.2 125.5,71.6 												"/>
											</g>
											<g id="Polygon-2-Copy-153">
												<polygon class="st2" points="119.1,69.8 122.2,71.6 122.2,75.2 119.1,77 116,75.2 116,71.6 												"/>
											</g>
											<g id="Polygon-2-Copy-152">
												<polygon class="st2" points="109.5,69.8 112.6,71.6 112.6,75.2 109.5,77 106.4,75.2 106.4,71.6 												"/>
											</g>
											<g id="Polygon-2-Copy-151">
												<polygon class="st2" points="100,69.8 103.1,71.6 103.1,75.2 100,77 96.9,75.2 96.9,71.6 												"/>
											</g>
											<g id="Polygon-2-Copy-150">
												<polygon class="st2" points="90.5,69.8 93.6,71.6 93.6,75.2 90.5,77 87.4,75.2 87.4,71.6 												"/>
											</g>
											<g id="Polygon-2-Copy-149">
												<polygon class="st2" points="80.9,69.8 84,71.6 84,75.2 80.9,77 77.8,75.2 77.8,71.6 												"/>
											</g>
											<g id="Polygon-2-Copy-148">
												<polygon class="st2" points="71.4,69.8 74.5,71.6 74.5,75.2 71.4,77 68.3,75.2 68.3,71.6 												"/>
											</g>
											<g id="Polygon-2-Copy-147">
												<polygon class="st2" points="61.8,69.8 64.9,71.6 64.9,75.2 61.8,77 58.7,75.2 58.7,71.6 												"/>
											</g>
											<g id="Polygon-2-Copy-146">
												<polygon class="st2" points="52.3,69.8 55.4,71.6 55.4,75.2 52.3,77 49.2,75.2 49.2,71.6 												"/>
											</g>
											<g id="Polygon-2-Copy-136">
												<polygon class="st2" points="147.7,60.3 150.8,62.1 150.8,65.7 147.7,67.4 144.6,65.7 144.6,62.1 												"/>
											</g>
											<g id="Polygon-2-Copy-135">
												<polygon class="st2" points="138.2,60.3 141.3,62.1 141.3,65.7 138.2,67.4 135.1,65.7 135.1,62.1 												"/>
											</g>
											<g id="Polygon-2-Copy-134">
												<polygon class="st2" points="128.6,60.3 131.7,62.1 131.7,65.7 128.6,67.4 125.5,65.7 125.5,62.1 												"/>
											</g>
											<g id="Polygon-2-Copy-133">
												<polygon class="st2" points="119.1,60.3 122.2,62.1 122.2,65.7 119.1,67.4 116,65.7 116,62.1 												"/>
											</g>
											<g id="Polygon-2-Copy-132">
												<polygon class="st2" points="109.5,60.3 112.6,62.1 112.6,65.7 109.5,67.4 106.4,65.7 106.4,62.1 												"/>
											</g>
											<g id="Polygon-2-Copy-131">
												<polygon class="st2" points="100,60.3 103.1,62.1 103.1,65.7 100,67.4 96.9,65.7 96.9,62.1 												"/>
											</g>
											<g id="Polygon-2-Copy-130">
												<polygon class="st2" points="90.5,60.3 93.6,62.1 93.6,65.7 90.5,67.4 87.4,65.7 87.4,62.1 												"/>
											</g>
											<g id="Polygon-2-Copy-129">
												<polygon class="st2" points="80.9,60.3 84,62.1 84,65.7 80.9,67.4 77.8,65.7 77.8,62.1 												"/>
											</g>
											<g id="Polygon-2-Copy-128">
												<polygon class="st2" points="71.4,60.3 74.5,62.1 74.5,65.7 71.4,67.4 68.3,65.7 68.3,62.1 												"/>
											</g>
											<g id="Polygon-2-Copy-127">
												<polygon class="st2" points="61.8,60.3 64.9,62.1 64.9,65.7 61.8,67.4 58.7,65.7 58.7,62.1 												"/>
											</g>
											<g id="Polygon-2-Copy-126">
												<polygon class="st2" points="52.3,60.3 55.4,62.1 55.4,65.7 52.3,67.4 49.2,65.7 49.2,62.1 												"/>
											</g>
											<g id="Polygon-2-Copy-116">
												<polygon class="st2" points="147.7,50.7 150.8,52.5 150.8,56.1 147.7,57.9 144.6,56.1 144.6,52.5 												"/>
											</g>
											<g id="Polygon-2-Copy-115">
												<polygon class="st2" points="138.2,50.7 141.3,52.5 141.3,56.1 138.2,57.9 135.1,56.1 135.1,52.5 												"/>
											</g>
											<g id="Polygon-2-Copy-114">
												<polygon class="st2" points="128.6,50.7 131.7,52.5 131.7,56.1 128.6,57.9 125.5,56.1 125.5,52.5 												"/>
											</g>
											<g id="Polygon-2-Copy-113">
												<polygon class="st2" points="119.1,50.7 122.2,52.5 122.2,56.1 119.1,57.9 116,56.1 116,52.5 												"/>
											</g>
											<g id="Polygon-2-Copy-112">
												<polygon class="st2" points="109.5,50.7 112.6,52.5 112.6,56.1 109.5,57.9 106.4,56.1 106.4,52.5 												"/>
											</g>
											<g id="Polygon-2-Copy-111">
												<polygon class="st2" points="100,50.7 103.1,52.5 103.1,56.1 100,57.9 96.9,56.1 96.9,52.5 												"/>
											</g>
											<g id="Polygon-2-Copy-110">
												<polygon class="st2" points="90.5,50.7 93.6,52.5 93.6,56.1 90.5,57.9 87.4,56.1 87.4,52.5 												"/>
											</g>
											<g id="Polygon-2-Copy-109">
												<polygon class="st2" points="80.9,50.7 84,52.5 84,56.1 80.9,57.9 77.8,56.1 77.8,52.5 												"/>
											</g>
											<g id="Polygon-2-Copy-108">
												<polygon class="st2" points="71.4,50.7 74.5,52.5 74.5,56.1 71.4,57.9 68.3,56.1 68.3,52.5 												"/>
											</g>
											<g id="Polygon-2-Copy-107">
												<polygon class="st2" points="61.8,50.7 64.9,52.5 64.9,56.1 61.8,57.9 58.7,56.1 58.7,52.5 												"/>
											</g>
											<g id="Polygon-2-Copy-106">
												<polygon class="st2" points="52.3,50.7 55.4,52.5 55.4,56.1 52.3,57.9 49.2,56.1 49.2,52.5 												"/>
											</g>
											<g id="Polygon-2-Copy-96">
												<polygon class="st2" points="147.7,41.2 150.8,43 150.8,46.6 147.7,48.4 144.6,46.6 144.6,43 												"/>
											</g>
											<g id="Polygon-2-Copy-95">
												<polygon class="st2" points="138.2,41.2 141.3,43 141.3,46.6 138.2,48.4 135.1,46.6 135.1,43 												"/>
											</g>
											<g id="Polygon-2-Copy-94">
												<polygon class="st2" points="128.6,41.2 131.7,43 131.7,46.6 128.6,48.4 125.5,46.6 125.5,43 												"/>
											</g>
											<g id="Polygon-2-Copy-93">
												<polygon class="st2" points="119.1,41.2 122.2,43 122.2,46.6 119.1,48.4 116,46.6 116,43 												"/>
											</g>
											<g id="Polygon-2-Copy-92">
												<polygon class="st2" points="109.5,41.2 112.6,43 112.6,46.6 109.5,48.4 106.4,46.6 106.4,43 												"/>
											</g>
											<g id="Polygon-2-Copy-91">
												<polygon class="st2" points="100,41.2 103.1,43 103.1,46.6 100,48.4 96.9,46.6 96.9,43 												"/>
											</g>
											<g id="Polygon-2-Copy-90">
												<polygon class="st2" points="90.5,41.2 93.6,43 93.6,46.6 90.5,48.4 87.4,46.6 87.4,43 												"/>
											</g>
											<g id="Polygon-2-Copy-89">
												<polygon class="st2" points="80.9,41.2 84,43 84,46.6 80.9,48.4 77.8,46.6 77.8,43 												"/>
											</g>
											<g id="Polygon-2-Copy-88">
												<polygon class="st2" points="71.4,41.2 74.5,43 74.5,46.6 71.4,48.4 68.3,46.6 68.3,43 												"/>
											</g>
											<g id="Polygon-2-Copy-87">
												<polygon class="st2" points="61.8,41.2 64.9,43 64.9,46.6 61.8,48.4 58.7,46.6 58.7,43 												"/>
											</g>
											<g id="Polygon-2-Copy-86">
												<polygon class="st2" points="52.3,41.2 55.4,43 55.4,46.6 52.3,48.4 49.2,46.6 49.2,43 												"/>
											</g>
											<g id="Polygon-2-Copy-76">
												<polygon class="st2" points="147.7,31.6 150.8,33.4 150.8,37 147.7,38.8 144.6,37 144.6,33.4 												"/>
											</g>
											<g id="Polygon-2-Copy-75">
												<polygon class="st2" points="138.2,31.6 141.3,33.4 141.3,37 138.2,38.8 135.1,37 135.1,33.4 												"/>
											</g>
											<g id="Polygon-2-Copy-74">
												<polygon class="st2" points="128.6,31.6 131.7,33.4 131.7,37 128.6,38.8 125.5,37 125.5,33.4 												"/>
											</g>
											<g id="Polygon-2-Copy-73">
												<polygon class="st2" points="119.1,31.6 122.2,33.4 122.2,37 119.1,38.8 116,37 116,33.4 												"/>
											</g>
											<g id="Polygon-2-Copy-72">
												<polygon class="st2" points="109.5,31.6 112.6,33.4 112.6,37 109.5,38.8 106.4,37 106.4,33.4 												"/>
											</g>
											<g id="Polygon-2-Copy-71">
												<polygon class="st2" points="100,31.6 103.1,33.4 103.1,37 100,38.8 96.9,37 96.9,33.4 												"/>
											</g>
											<g id="Polygon-2-Copy-70">
												<polygon class="st2" points="90.5,31.6 93.6,33.4 93.6,37 90.5,38.8 87.4,37 87.4,33.4 												"/>
											</g>
											<g id="Polygon-2-Copy-69">
												<polygon class="st2" points="80.9,31.6 84,33.4 84,37 80.9,38.8 77.8,37 77.8,33.4 												"/>
											</g>
											<g id="Polygon-2-Copy-68">
												<polygon class="st2" points="71.4,31.6 74.5,33.4 74.5,37 71.4,38.8 68.3,37 68.3,33.4 												"/>
											</g>
											<g id="Polygon-2-Copy-67">
												<polygon class="st2" points="61.8,31.6 64.9,33.4 64.9,37 61.8,38.8 58.7,37 58.7,33.4 												"/>
											</g>
											<g id="Polygon-2-Copy-66">
												<polygon class="st2" points="52.3,31.6 55.4,33.4 55.4,37 52.3,38.8 49.2,37 49.2,33.4 												"/>
											</g>
										</g>
									</g>
								</g>
							</g>
						</g>
					</g>
				</g>
			</g>
		</g>
	</g>
	
		<radialGradient id="SVGID_4_" cx="59" cy="69.5" r="53.228" gradientTransform="matrix(1 0 0 -1 0 139)" gradientUnits="userSpaceOnUse">
		<stop  offset="0" style="stop-color:#201E25;stop-opacity:0"/>
		<stop  offset="1" style="stop-color:#000000"/>
	</radialGradient>
	<polygon class="st3" points="10.3,40.8 10.3,98.2 59,126.9 107.7,98.2 107.7,40.8 59,12.1 	"/>
	<g id="Page-1_1_">
		<g id="HOME-Copy-2_1_" transform="translate(-699.000000, -80.000000)">
			<g id="logo_1_" transform="translate(647.000000, 0.000000)">
				<g id="Group-38_1_" transform="translate(30.000000, 53.000000)">
					<g id="Group-36" transform="translate(22.000000, 27.000000)">
						<path id="Shape" class="st4" d="M52.9,68.2c0,0-6.2-17.6-8.3-23.9c-4.8,1.3-9.4,11.1-5.1,19.5c2,4,8,14,8,14L52.9,68.2z"/>
						<path id="Shape_1_" class="st5" d="M65.2,68.2c0,0,6.2-17.6,8.3-23.9c4.8,1.3,9.4,11.1,5.1,19.5c-2,3.9-8,14-8,14L65.2,68.2z"
							/>
						<polygon id="Shape_2_" class="st4" points="43.9,75.7 41.8,74.2 40.4,70.3 39.4,70.3 39.9,75.4 46.2,79.2 						"/>
						<polygon id="Shape_3_" class="st5" points="76.4,74.2 73.6,75.5 71.3,78.9 78.4,75.4 78.9,70.3 77.9,70.3 						"/>
						<polygon id="Shape_4_" class="st5" points="59.1,86.1 52.9,84.5 52.3,85.8 59.1,97.6 59.1,97.6 59.1,97.6 65.9,85.8 
							65.3,84.5 						"/>
						<path id="Shape_5_" class="st6" d="M63.8,67.9c-1.6-3.1-4.6-7.6-4.6-7.6s-3.1,4.5-4.6,7.6l4.6,7.5L63.8,67.9z"/>
						<path id="Shape_6_" class="st6" d="M68.9,78.1c-1.2-2-2.8-4.6-4.3-7.8l-5.4,9.4l-5.4-9.4c-1.6,3.2-3.2,5.9-4.3,7.8l-4.2,3.4
							l-0.6,8h1l1.5-6.8L49,82l10.1,1.4L69.2,82l1.9,0.8l1.5,6.8h1l-0.6-8L68.9,78.1z"/>
						<polygon id="Shape_7_" class="st7" points="59.1,83.1 59.1,80.7 53.7,71.1 49.4,78.1 45.2,81.6 44.6,89.6 45.4,89.4 
							46.5,82.5 49.3,81.2 						"/>
						<path id="Shape_8_" class="st8" d="M59.1,60.3c0,0,3.6,5.4,4.6,7.6c-0.9-1.3-4.6-5.3-4.6-5.3V60.3z"/>
						<polygon id="Shape_9_" class="st5" points="44.3,45.3 52.1,67.9 50.2,71.6 51.2,67.6 43.8,46.4 						"/>
						<polygon id="Shape_10_" class="st9" points="74,45.3 66.2,67.9 67.2,67.6 74.4,46.4 						"/>
						<polygon id="Shape_11_" class="st4" points="59.1,86.6 59.1,96.5 52.9,86 53.3,84.9 						"/>
						<polygon id="Shape_12_" class="st7" points="59.1,75.5 59.1,62.6 54.5,67.9 						"/>
						<polygon id="Shape_13_" class="st9" points="59.1,86.1 65.3,84.5 59.7,86.8 59.1,96.5 						"/>
						<polygon id="Shape_14_" class="st10" points="60.5,62.6 60.5,63.8 61.3,64.8 61.3,64 						"/>
						<path id="Shape_15_" class="st11" d="M64.6,70.3c-0.8,1.3-5.4,9.4-5.4,9.4v0.9l5.3-9l4.4,6.3C68.9,78.1,65.5,72.6,64.6,70.3z"
							/>
						<polygon id="Shape_16_" class="st11" points="73.6,89.6 72.8,89.4 71.6,82.6 69.2,81.5 59.1,83.1 59.1,83.4 69.2,82 
							71.1,82.9 72.6,89.6 						"/>
						<polygon id="Shape_17_" class="st11" points="59.7,79.9 59.1,83.4 59.1,80.7 						"/>
						<path id="Shape_18_" class="st5" d="M59.1,101.3L49,84.2l-0.9,0.5l-1,6.3h-3.9l-0.1-9.5l1.1-1.5l-5.8-3.1l-0.9-8.7h2
							c-0.3-0.7-1-2.4-2.2-4.8c-1.9-4.4-1.9-9.4,0.1-13.9c1.7-3.9,4.8-7,7.6-7.9l0.2-0.1l0.1,0.2c0.5,1.3,6.9,19.8,8.2,23.2l5.4-7.6
							v0.9l-5.6,7.9l-0.2-0.6C53,65.3,46,44.8,44.9,42.1c-2.6,0.9-5.4,4-7,7.6c-2,4.5-2,9.2-0.1,13.4c1.5,3.3,2.3,5.3,2.3,5.3
							l0.2,0.5H38l0.8,7.8l6.1,3.2l-1.5,1.8l0.1,8.7h2.8l1-6.2l1.6-0.8l0.1,0.2l9.7,16.4v1.3H59.1z"/>
						<path id="Shape_19_" class="st9" d="M59.1,101.3V100l9.7-16.7l1.6,0.8l1,6.2h2.8l0.1-8.7l-1.5-1.8l6.1-3.2l0.8-7.8h-2.3
							l0.1-0.3c0,0,0.8-2,2.3-5.3c1.9-4.2,1.9-9.1-0.1-13.4c-1.6-3.6-4.4-6.7-7-7.6c-1,2.9-8.2,23.3-8.2,23.4l-0.2,0.6L59,58.3v-0.9
							l5.2,7.5c1.2-3.4,7.6-21.9,8.2-23.2l0.2-0.3l0.2,0.1c2.9,0.9,5.9,4,7.6,7.9c2,4.6,2,9.5,0.1,13.9c-1.1,2.4-1.8,4.1-2.2,4.8h2
							l-0.8,8.8L73.8,80l1.1,1.5V91H71l-1-6.3l-0.9-0.5L59.1,101.3z"/>
						<polygon id="Shape_20_" class="st10" points="61.9,75.2 61.9,75.8 60.8,77.8 60.7,77.2 						"/>
					</g>
				</g>
			</g>
		</g>
	</g>
</g>
</svg>
